<svg width="188" height="38" viewBox="0 0 188 38" fill="none" xmlns="http://www.w3.org/2000/svg">
<path d="M1.88 21.28C1.08 22.6 0.72 23.52 0.72 24.32C0.72 26 2.64 28 4.28 28C5.24 28 5.56 27.6 6.08 25.84C6.28 25.2 6.56 24.52 6.88 23.8C7.36 22.8 7.6 22.48 8.04 22.32C8.8 22.04 10.56 21.8 12.8 21.68C12.72 22.56 12.68 23.16 12.68 23.8C12.68 25.04 12.88 25.72 13.52 26.4C14.64 27.6 15.32 27.96 16.28 27.96C17.76 27.96 18.88 27.12 18.88 26C18.88 25.84 18.84 25.52 18.8 25.2C18.72 24.48 18.68 23.84 18.68 23.32C18.68 21.56 18.92 19 19.24 16.88C19.76 13.76 20.84 9.56 21.92 6.36C22.36 5.16 22.44 4.76 22.44 4.4C22.44 4 22.24 3.56 21.8 3.12L21.12 2.44C19.68 1 19.52 0.879999 18.72 0.879999C18.04 0.879999 17.48 1.12 16.6 1.76C15 2.92 12.56 5.44 10.44 8.08C8.6 10.32 5.96 14.04 4.88 15.88C3.68 17.84 3.6 17.96 2.64 18.28C1.68 18.6 1.4 18.88 1.4 19.56C1.4 20.04 1.52 20.4 1.88 21.28ZM13.56 16.48C12.64 16.64 11.92 16.76 11.44 16.84C11.36 16.84 11.28 16.84 11.2 16.84C11.04 16.84 10.92 16.76 10.92 16.64C10.92 16.44 11.04 16.24 11.44 15.6L12.68 13.76C12.76 13.64 12.96 13.4 13.52 12.68C13.72 12.4 13.92 12.12 14.16 11.88C14.44 11.48 14.48 11.44 14.56 11.36C14.76 11.16 14.84 11.08 15 11.08C15.08 11.08 15.16 11.16 15.16 11.24C15.16 11.32 15.12 11.44 15.04 11.68C14.16 13.96 13.92 14.76 13.56 16.48ZM21.9294 22.24C21.9294 25.72 23.7694 27.96 26.6094 27.96C28.5694 27.96 30.5294 26.72 32.1694 24.48C32.4094 24.16 32.5294 24.08 32.6894 24.08C32.8494 24.08 32.9294 24.2 32.9694 24.48C33.0094 26.48 34.4894 28 36.3694 28C37.2094 28 37.6094 27.56 37.7294 26.48C38.2894 21.28 40.4494 14.68 43.4094 9.28L45.5694 5.32C45.9694 4.6 46.1294 4.2 46.1294 3.84C46.1294 3.64 46.0494 3.48 45.8494 3.24C45.6094 2.88 45.2494 2.4 45.0894 2.2C44.5294 1.6 44.0094 1.32 43.2494 1.32C41.4494 1.32 40.3294 2.68 37.6894 8.04C36.5694 10.36 35.5294 12.4 34.6094 14.08C33.2894 16.56 31.9694 18.64 31.0094 19.76C30.0894 20.8 29.3694 21.32 28.8494 21.32C28.3694 21.32 28.0894 20.96 28.0894 20.32C28.0894 19.48 28.4094 18.24 28.9694 16.68C30.3294 13.04 32.0494 10.04 35.2894 5.72C35.8494 5 36.0894 4.52 36.0894 4.2C36.0894 3.8 35.7694 3.32 35.0494 2.52C34.2094 1.6 33.7294 1.36 32.8494 1.36C31.2094 1.36 29.8894 2.08 29.7694 3.08C29.6894 3.76 29.4494 4.16 28.2494 5.96C26.1694 9 24.8094 11.6 23.6494 14.68C22.5294 17.72 21.9294 20.24 21.9294 22.24ZM46.5663 24.04C46.5663 25.08 47.0063 25.96 48.1263 27.12C48.7263 27.72 49.2463 28 49.8863 28C51.2863 28 52.7663 26.88 52.8063 25.84V25.04C52.8063 23.64 53.4063 21.04 54.3263 18.4C55.3263 15.56 56.4063 13.04 58.0863 9.68C58.8463 8.16 59.1663 7.64 59.4063 7.4C59.7663 7.08 60.6863 6.84 61.8063 6.84C62.4062 6.84 62.9662 6.92 63.4863 7.04C63.6463 7.08 63.8063 7.08 63.8863 7.08C64.4462 7.08 64.9263 6.24 64.9263 5.16C64.9263 2.88 63.3663 1.36 61.0063 1.36C60.2863 1.36 59.3263 1.48 57.0863 1.92L54.1662 2.44C51.8463 2.88 51.0063 3 50.2063 3C49.6463 3 49.1663 2.96 48.4863 2.84C48.3663 2.8 48.2862 2.8 48.2063 2.8C47.6063 2.8 47.1663 3.6 47.1663 4.72C47.1663 7 48.4863 8.48 50.5263 8.48C50.9263 8.48 51.0063 8.44 51.7663 8.32C51.8463 8.32 51.9263 8.28 52.0063 8.28C52.2063 8.28 52.3263 8.44 52.3263 8.72C52.3263 8.88 52.2863 9.08 52.1263 9.32L51.0463 11.56C49.7263 14.28 48.5663 17.08 47.4463 20.32C46.8863 21.88 46.5663 23.36 46.5663 24.04ZM60.2069 20.84C60.2069 25.12 62.7269 28.2 66.3269 28.2C70.3269 28.2 74.5269 24.96 77.5269 19.64C79.4069 16.24 80.4069 12.84 80.4069 9.84C80.4069 8.92 80.3269 8.12 80.1669 7.52L79.8469 6.16C79.8069 5.96 79.7269 5.6 79.6469 5.2C79.3269 3.72 79.0469 3.16 78.0869 2.36C77.0869 1.52 76.2869 1.16 75.3269 1.16C73.8069 1.16 71.8469 2.12 69.5269 4C64.2469 8.2 60.2069 15.52 60.2069 20.84ZM66.4069 19.88C66.4069 17.44 68.6469 12.88 71.2469 9.96C72.8469 8.12 74.0469 7.2 74.7669 7.2C75.2069 7.2 75.5269 7.6 75.5269 8.24C75.5269 10.24 74.1269 14.04 72.2869 17C70.6469 19.68 68.6869 21.56 67.5669 21.56C66.8869 21.56 66.4069 20.84 66.4069 19.88ZM88.4488 15C87.2888 15 85.2488 15.24 83.8488 15.48C81.6087 15.92 80.9688 16.28 80.9688 17.12C80.9688 17.36 81.0088 17.64 81.0888 17.92L81.5288 19.04L81.8488 19.96C82.0888 20.68 82.5288 21.04 83.0488 21.04C83.3688 21.04 83.4488 21.04 85.4488 20.48C86.8088 20.08 87.7288 19.92 88.4488 19.92C89.0088 19.92 89.6888 20 90.1288 20.16C90.2888 20.2 90.4488 20.24 90.5288 20.24C91.0088 20.24 91.3288 19.6 91.3288 18.64C91.3288 16.2 90.3688 15 88.4488 15ZM97.5513 11.76C97.5513 13.72 98.3913 15.52 100.111 17.2L101.471 18.56C102.191 19.28 102.511 19.84 102.511 20.44C102.511 21.56 101.391 22.4 99.9513 22.4C98.8713 22.4 98.3913 22.12 97.3113 20.76C96.7113 20 96.2313 19.72 95.4313 19.72C93.9113 19.72 92.7512 21 92.7512 22.76C92.7512 25.72 95.9113 28.04 100.031 28.04C104.991 28.04 109.031 24.8 109.031 20.76C109.031 18.92 108.471 17.96 106.111 15.68C104.111 13.76 103.551 12.8 103.551 11.56C103.551 10.48 104.191 9.24 105.391 8.2C106.111 7.56 106.751 7.2 107.231 7.2C107.511 7.2 107.671 7.36 107.671 7.6C107.671 7.84 107.551 8.24 107.231 8.88C106.831 9.72 106.671 10.12 106.671 10.48C106.671 10.84 106.991 11.76 107.351 12.6C107.751 13.48 108.351 13.88 109.231 13.88C110.191 13.88 111.151 13.36 111.671 12.52C112.471 11.28 112.951 9.56 112.951 7.96C112.951 6.28 112.391 4.64 111.351 3.2C110.391 1.88 109.351 1.32 107.951 1.32C106.231 1.32 104.191 2.16 102.231 3.72C99.0313 6.2 97.5513 8.8 97.5513 11.76Z" fill="white"/>
<path d="M134.377 6.673C134.377 8.064 135.196 9.065 136.366 9.065C137.666 9.065 139.031 8.012 140.006 6.283C140.617 5.178 140.942 4.073 140.942 3.098C140.942 2.799 140.916 2.539 140.864 2.344L140.76 1.902C140.747 1.837 140.721 1.72 140.695 1.59C140.591 1.109 140.5 0.926999 140.188 0.667C139.863 0.393999 139.603 0.277 139.291 0.277C138.797 0.277 138.16 0.589 137.406 1.2C135.69 2.565 134.377 4.944 134.377 6.673ZM136.392 6.361C136.392 5.568 137.12 4.086 137.965 3.137C138.485 2.539 138.875 2.24 139.109 2.24C139.252 2.24 139.356 2.37 139.356 2.578C139.356 3.228 138.901 4.463 138.303 5.425C137.77 6.296 137.133 6.907 136.769 6.907C136.548 6.907 136.392 6.673 136.392 6.361ZM144.336 7.453C144.336 7.076 144.193 6.855 143.647 6.374C143.14 5.919 142.997 5.724 142.997 5.451C142.997 5.256 143.101 5.074 143.283 4.918C143.426 4.801 143.582 4.723 143.673 4.723C143.764 4.723 143.829 4.788 143.829 4.866C143.829 4.905 143.816 4.944 143.738 5.022C143.595 5.204 143.569 5.256 143.569 5.347C143.569 5.451 143.608 5.529 143.79 5.789C143.959 6.049 144.089 6.127 144.31 6.127C144.791 6.127 145.298 5.49 145.298 4.853C145.298 4.762 145.285 4.671 145.259 4.58L145.155 4.255C145.129 4.177 145.103 4.073 145.077 3.956C144.921 3.267 144.635 3.02 143.933 3.02C142.516 3.02 141.19 4.125 141.19 5.321C141.19 5.763 141.359 6.049 141.892 6.53L142.152 6.751C142.36 6.946 142.438 7.063 142.438 7.18C142.438 7.336 142.282 7.466 142.1 7.466C141.983 7.466 141.905 7.427 141.827 7.31L141.697 7.128C141.515 6.868 141.372 6.79 141.112 6.79C140.67 6.79 140.345 7.115 140.345 7.557C140.345 8.389 141.164 9 142.282 9C143.465 9 144.336 8.35 144.336 7.453ZM147.523 2.981C147.081 2.981 146.587 3.28 146.548 3.566L146.509 3.904C146.496 3.969 146.457 4.099 146.379 4.281C145.95 5.282 145.69 6.036 145.469 6.829C145.3 7.401 145.248 7.687 145.248 7.908C145.248 8.142 145.326 8.337 145.508 8.545C145.794 8.883 145.963 9 146.184 9C146.652 9 147.042 8.675 147.042 8.298C147.042 8.22 147.042 8.181 147.042 8.155C147.042 7.791 147.12 7.362 147.276 6.933C147.666 5.867 148.329 5.035 148.771 5.035C148.862 5.035 148.966 5.087 149.018 5.178L149.174 5.412C149.226 5.477 149.278 5.516 149.343 5.516C149.512 5.516 149.707 5.399 149.928 5.178C150.305 4.801 150.526 4.307 150.526 3.839C150.526 3.345 150.188 2.981 149.746 2.981C149.434 2.981 149.135 3.163 148.745 3.618L148.394 4.034C148.329 4.112 148.29 4.138 148.264 4.138C148.225 4.138 148.199 4.125 148.199 4.086C148.199 4.06 148.212 4.021 148.238 3.969C148.29 3.852 148.316 3.774 148.316 3.709C148.316 3.579 148.186 3.384 147.939 3.163C147.809 3.046 147.679 2.981 147.523 2.981ZM150.036 7.18C150.036 8.272 150.764 9.052 151.778 9.052C153.351 9.052 154.989 7.011 154.989 5.035C154.989 4.866 154.976 4.697 154.937 4.528L154.82 3.982C154.729 3.592 154.677 3.475 154.534 3.306C154.287 3.033 153.91 2.877 153.52 2.877C152.87 2.877 152.012 3.384 151.323 4.177C150.543 5.061 150.036 6.244 150.036 7.18ZM151.882 6.673C151.882 6.4 152.051 5.997 152.324 5.581C152.636 5.087 152.935 4.814 153.156 4.814C153.299 4.814 153.39 4.944 153.39 5.139C153.39 5.412 153.247 5.828 153.013 6.218C152.714 6.725 152.428 6.998 152.168 7.011C152.012 7.011 151.882 6.868 151.882 6.673ZM155.114 7.245C155.114 8.233 155.738 9.013 156.557 9.013C157.116 9.013 157.493 8.818 158.117 8.207C158.143 8.168 158.169 8.155 158.195 8.155C158.247 8.155 158.273 8.194 158.325 8.324C158.481 8.818 158.728 9.013 159.183 9.013C159.781 9.013 160.288 8.714 160.899 8.012C161.536 7.271 161.9 6.634 161.9 6.257C161.9 5.945 161.692 5.581 161.51 5.581C161.432 5.581 161.367 5.633 161.263 5.802L160.99 6.205C160.678 6.66 160.288 7.024 160.119 7.024C160.041 7.024 159.989 6.959 159.989 6.855C159.989 6.725 160.067 6.478 160.314 5.802C160.574 5.087 160.821 4.541 161.25 3.67C161.796 2.565 162.03 2.123 162.199 1.824C162.459 1.408 162.485 1.33 162.485 1.187C162.485 1.096 162.446 0.991999 162.394 0.926999L162.134 0.641L161.991 0.459C161.887 0.355 161.705 0.29 161.523 0.29C161.289 0.29 161.029 0.380999 160.795 0.55C160.665 0.654 160.626 0.706 160.587 0.875C160.561 1.044 160.535 1.122 160.496 1.226C160.431 1.382 160.249 1.772 160.054 2.149L159.677 2.916C159.482 3.332 159.456 3.371 159.391 3.371C159.352 3.371 159.326 3.358 159.287 3.332L159.118 3.202C158.897 3.033 158.689 2.968 158.429 2.968C157.792 2.968 156.986 3.501 156.271 4.398C155.569 5.269 155.114 6.4 155.114 7.245ZM158.325 6.244C158.117 6.517 158.052 6.595 157.935 6.725C157.714 6.985 157.441 7.154 157.259 7.154C157.129 7.154 157.051 7.05 157.051 6.881C157.051 6.543 157.376 5.802 157.727 5.334C158.052 4.918 158.286 4.736 158.481 4.736C158.637 4.736 158.728 4.84 158.728 5.009C158.728 5.217 158.559 5.724 158.325 6.244ZM163.919 6.634C164.114 6.66 164.218 6.66 164.361 6.66C165.739 6.66 166.805 5.672 166.805 4.424C166.805 3.553 166.259 2.955 165.453 2.955C163.815 2.955 161.995 5.126 161.995 7.076C161.995 8.233 162.775 9.039 163.88 9.039C164.543 9.039 165.128 8.753 165.635 8.194C166.012 7.791 166.259 7.297 166.259 6.972C166.259 6.79 166.142 6.647 165.973 6.647C165.856 6.647 165.791 6.699 165.466 6.985C165.115 7.297 164.816 7.453 164.504 7.453C164.166 7.453 163.893 7.18 163.893 6.829C163.893 6.777 163.906 6.712 163.919 6.634ZM164.374 5.425C164.699 4.879 165.089 4.502 165.336 4.502C165.44 4.502 165.505 4.567 165.505 4.671C165.505 4.853 165.323 5.113 165.089 5.269C164.933 5.386 164.751 5.425 164.491 5.425C164.465 5.425 164.439 5.425 164.374 5.425ZM166.779 7.934C166.779 8.207 166.844 8.337 167.078 8.623C167.325 8.922 167.455 9 167.702 9C168.183 9 168.586 8.675 168.586 8.272C168.586 8.233 168.586 8.168 168.573 8.077C168.573 8.038 168.573 7.999 168.573 7.973C168.573 7.518 168.755 6.998 169.054 6.556C169.223 6.309 169.418 6.127 169.535 6.127C169.574 6.127 169.6 6.153 169.6 6.179C169.6 6.192 169.6 6.192 169.561 6.322C169.457 6.686 169.392 7.102 169.392 7.44C169.392 8.363 169.925 9.013 170.666 9.013C171.225 9.013 171.771 8.649 172.317 7.882C172.772 7.258 173.097 6.621 173.097 6.361C173.097 6.192 173.019 5.919 172.902 5.763C172.837 5.659 172.772 5.607 172.694 5.607C172.603 5.607 172.525 5.685 172.408 5.841C171.875 6.647 171.615 6.907 171.381 6.907C171.277 6.907 171.225 6.816 171.225 6.634C171.225 6.4 171.251 6.075 171.329 5.685C171.407 5.269 171.446 5.1 171.498 5.022C171.563 4.905 171.81 4.814 172.018 4.814C172.083 4.814 172.148 4.814 172.226 4.84C172.291 4.853 172.343 4.866 172.369 4.866C172.486 4.866 172.642 4.762 172.785 4.593C172.98 4.359 173.123 4.034 173.123 3.839C173.123 3.371 172.681 2.968 172.187 2.968C171.615 2.968 170.874 3.332 170.107 4.021C170.003 4.112 169.99 4.125 169.964 4.125C169.925 4.125 169.899 4.099 169.899 4.06C169.899 4.008 169.912 3.969 169.964 3.865C169.99 3.826 170.068 3.683 170.185 3.462C170.406 3.02 170.666 2.552 170.965 2.045C171.264 1.538 171.342 1.382 171.342 1.226C171.342 1.083 171.264 0.966 170.991 0.654C170.731 0.368 170.614 0.303 170.38 0.303C170.172 0.303 169.899 0.380999 169.691 0.497999C169.47 0.614999 169.431 0.667 169.379 0.991999C169.34 1.239 169.223 1.512 168.95 2.032C168.391 3.111 167.832 4.359 167.377 5.594C167 6.621 166.779 7.492 166.779 7.934ZM135.469 15.722C135.469 16.359 135.742 16.944 136.301 17.49L136.743 17.932C136.977 18.166 137.081 18.348 137.081 18.543C137.081 18.907 136.717 19.18 136.249 19.18C135.898 19.18 135.742 19.089 135.391 18.647C135.196 18.4 135.04 18.309 134.78 18.309C134.286 18.309 133.909 18.725 133.909 19.297C133.909 20.259 134.936 21.013 136.275 21.013C137.887 21.013 139.2 19.96 139.2 18.647C139.2 18.049 139.018 17.737 138.251 16.996C137.601 16.372 137.419 16.06 137.419 15.657C137.419 15.306 137.627 14.903 138.017 14.565C138.251 14.357 138.459 14.24 138.615 14.24C138.706 14.24 138.758 14.292 138.758 14.37C138.758 14.448 138.719 14.578 138.615 14.786C138.485 15.059 138.433 15.189 138.433 15.306C138.433 15.423 138.537 15.722 138.654 15.995C138.784 16.281 138.979 16.411 139.265 16.411C139.577 16.411 139.889 16.242 140.058 15.969C140.318 15.566 140.474 15.007 140.474 14.487C140.474 13.941 140.292 13.408 139.954 12.94C139.642 12.511 139.304 12.329 138.849 12.329C138.29 12.329 137.627 12.602 136.99 13.109C135.95 13.915 135.469 14.76 135.469 15.722ZM142.491 16.671C142.491 16.697 142.465 16.723 142.4 16.775L141.971 17.126C140.32 18.439 139.644 19.206 139.644 19.739C139.644 19.934 139.67 20.012 139.982 20.415C140.385 20.948 140.45 21.013 140.671 21.013C140.736 21.013 140.827 20.987 140.931 20.974L141.646 20.792C141.867 20.74 142.14 20.714 142.452 20.714C142.751 20.714 142.985 20.753 143.206 20.818L143.401 20.883C143.453 20.896 143.492 20.909 143.531 20.909C143.583 20.909 143.635 20.883 143.713 20.844C144.012 20.662 144.207 20.324 144.207 19.986C144.207 19.479 143.804 19.128 143.258 19.128C143.102 19.128 142.907 19.141 142.725 19.18C142.543 19.219 142.504 19.232 142.439 19.232C142.387 19.232 142.348 19.206 142.348 19.167C142.348 19.115 142.387 19.037 142.491 18.933C142.647 18.751 143.128 18.309 143.531 17.984L144.532 17.178C144.974 16.814 145.104 16.619 145.104 16.333C145.104 16.138 145 15.735 144.883 15.449C144.753 15.124 144.558 15.007 144.181 15.007C144.064 15.007 143.869 15.02 143.687 15.033L142.881 15.098L142.244 15.15C142.114 15.163 141.984 15.163 141.854 15.163C141.646 15.163 141.49 15.15 141.269 15.111C141.243 15.098 141.217 15.098 141.191 15.098C140.957 15.098 140.645 15.514 140.645 15.865C140.645 16.346 141.048 16.71 141.568 16.71C141.685 16.71 141.88 16.684 142.049 16.658C142.335 16.606 142.374 16.606 142.413 16.606C142.465 16.606 142.491 16.632 142.491 16.671ZM144.778 19.934C144.778 20.207 144.843 20.337 145.077 20.623C145.324 20.922 145.454 21 145.701 21C146.182 21 146.585 20.675 146.585 20.272C146.585 20.233 146.585 20.168 146.572 20.077C146.572 20.038 146.572 19.999 146.572 19.973C146.572 19.518 146.754 18.998 147.053 18.556C147.222 18.309 147.417 18.127 147.534 18.127C147.573 18.127 147.599 18.153 147.599 18.179C147.599 18.192 147.599 18.192 147.56 18.322C147.456 18.686 147.391 19.102 147.391 19.44C147.391 20.363 147.924 21.013 148.665 21.013C149.224 21.013 149.77 20.649 150.316 19.882C150.771 19.258 151.096 18.621 151.096 18.361C151.096 18.192 151.018 17.919 150.901 17.763C150.836 17.659 150.771 17.607 150.693 17.607C150.602 17.607 150.524 17.685 150.407 17.841C149.874 18.647 149.614 18.907 149.38 18.907C149.276 18.907 149.224 18.816 149.224 18.634C149.224 18.4 149.25 18.075 149.328 17.685C149.406 17.269 149.445 17.1 149.497 17.022C149.562 16.905 149.809 16.814 150.017 16.814C150.082 16.814 150.147 16.814 150.225 16.84C150.29 16.853 150.342 16.866 150.368 16.866C150.485 16.866 150.641 16.762 150.784 16.593C150.979 16.359 151.122 16.034 151.122 15.839C151.122 15.371 150.68 14.968 150.186 14.968C149.614 14.968 148.873 15.332 148.106 16.021C148.002 16.112 147.989 16.125 147.963 16.125C147.924 16.125 147.898 16.099 147.898 16.06C147.898 16.008 147.911 15.969 147.963 15.865C147.989 15.826 148.067 15.683 148.184 15.462C148.405 15.02 148.665 14.552 148.964 14.045C149.263 13.538 149.341 13.382 149.341 13.226C149.341 13.083 149.263 12.966 148.99 12.654C148.73 12.368 148.613 12.303 148.379 12.303C148.171 12.303 147.898 12.381 147.69 12.498C147.469 12.615 147.43 12.667 147.378 12.992C147.339 13.239 147.222 13.512 146.949 14.032C146.39 15.111 145.831 16.359 145.376 17.594C144.999 18.621 144.778 19.492 144.778 19.934ZM151.293 19.18C151.293 20.272 152.021 21.052 153.035 21.052C154.608 21.052 156.246 19.011 156.246 17.035C156.246 16.866 156.233 16.697 156.194 16.528L156.077 15.982C155.986 15.592 155.934 15.475 155.791 15.306C155.544 15.033 155.167 14.877 154.777 14.877C154.127 14.877 153.269 15.384 152.58 16.177C151.8 17.061 151.293 18.244 151.293 19.18ZM153.139 18.673C153.139 18.4 153.308 17.997 153.581 17.581C153.893 17.087 154.192 16.814 154.413 16.814C154.556 16.814 154.647 16.944 154.647 17.139C154.647 17.412 154.504 17.828 154.27 18.218C153.971 18.725 153.685 18.998 153.425 19.011C153.269 19.011 153.139 18.868 153.139 18.673ZM159.907 12.394C159.712 12.394 159.439 12.472 159.231 12.589C159.062 12.693 159.023 12.732 158.971 12.94C158.906 13.2 158.763 13.525 158.36 14.292C157.905 15.137 157.359 16.307 156.969 17.23C156.527 18.296 156.319 19.011 156.319 19.596C156.319 20.428 156.8 21 157.476 21C158.061 21 158.646 20.636 159.309 19.869C159.829 19.245 160.167 18.634 160.167 18.296C160.167 17.984 159.972 17.672 159.777 17.672C159.673 17.672 159.66 17.685 159.296 18.179C158.919 18.699 158.529 19.076 158.36 19.076C158.282 19.076 158.243 19.011 158.243 18.907C158.243 18.66 158.555 17.841 159.114 16.671C159.569 15.683 160.297 14.344 160.674 13.772C160.83 13.538 160.869 13.434 160.869 13.304C160.869 13.174 160.804 13.057 160.583 12.797C160.323 12.485 160.154 12.394 159.907 12.394ZM162.294 18.634C162.489 18.66 162.593 18.66 162.736 18.66C164.114 18.66 165.18 17.672 165.18 16.424C165.18 15.553 164.634 14.955 163.828 14.955C162.19 14.955 160.37 17.126 160.37 19.076C160.37 20.233 161.15 21.039 162.255 21.039C162.918 21.039 163.503 20.753 164.01 20.194C164.387 19.791 164.634 19.297 164.634 18.972C164.634 18.79 164.517 18.647 164.348 18.647C164.231 18.647 164.166 18.699 163.841 18.985C163.49 19.297 163.191 19.453 162.879 19.453C162.541 19.453 162.268 19.18 162.268 18.829C162.268 18.777 162.281 18.712 162.294 18.634ZM162.749 17.425C163.074 16.879 163.464 16.502 163.711 16.502C163.815 16.502 163.88 16.567 163.88 16.671C163.88 16.853 163.698 17.113 163.464 17.269C163.308 17.386 163.126 17.425 162.866 17.425C162.84 17.425 162.814 17.425 162.749 17.425ZM167.429 14.994C167.221 14.994 166.896 15.111 166.662 15.267C166.493 15.384 166.454 15.462 166.428 15.67C166.402 15.956 166.363 16.06 166.285 16.281L165.726 17.646C165.44 18.374 165.154 19.544 165.154 19.986C165.154 20.246 165.219 20.376 165.492 20.662C165.778 20.948 165.869 21.013 166.064 21.013C166.558 21.013 166.948 20.688 166.948 20.285C166.948 20.259 166.935 20.194 166.935 20.155C166.935 20.09 166.935 20.038 166.935 20.012C166.935 19.466 167.156 18.803 167.585 18.088C167.897 17.581 168.196 17.269 168.391 17.269C168.443 17.269 168.482 17.308 168.482 17.373C168.482 17.464 168.456 17.542 168.235 18.101C167.988 18.725 167.884 19.193 167.884 19.622C167.884 20.441 168.365 21 169.067 21C169.639 21 170.237 20.649 170.809 19.973C171.433 19.232 171.81 18.595 171.81 18.283C171.81 18.14 171.732 17.919 171.615 17.763C171.55 17.685 171.485 17.633 171.42 17.633C171.316 17.633 171.238 17.711 171.069 17.958C170.679 18.543 170.185 19.037 169.977 19.037C169.899 19.037 169.821 18.972 169.821 18.881C169.821 18.79 169.873 18.647 169.964 18.387C170.133 17.945 170.289 17.594 170.692 16.762C170.874 16.411 170.926 16.242 170.926 16.06C170.926 15.852 170.848 15.722 170.588 15.41C170.276 15.046 170.159 14.981 169.912 14.981C169.6 14.981 169.236 15.215 168.599 15.852C168.3 16.138 168.235 16.19 168.183 16.19C168.144 16.19 168.118 16.151 168.118 16.099C168.118 16.06 168.131 16.008 168.17 15.878C168.196 15.813 168.209 15.761 168.209 15.709C168.209 15.618 168.131 15.475 167.923 15.254C167.754 15.085 167.598 14.994 167.429 14.994ZM173.872 13.551C173.872 13.772 173.963 13.941 174.158 14.11L174.509 14.396C174.769 14.617 174.886 14.669 175.107 14.669C175.575 14.669 175.965 14.279 175.965 13.811C175.965 13.499 175.9 13.382 175.484 13.044L175.263 12.875C175.081 12.719 174.925 12.654 174.73 12.654C174.275 12.654 173.872 13.07 173.872 13.551ZM174.21 15.007C173.937 15.007 173.599 15.111 173.404 15.267C173.261 15.371 173.222 15.436 173.196 15.605C173.144 15.943 173.118 16.034 172.546 17.399C172.104 18.426 171.922 19.076 171.922 19.596C171.922 20.441 172.39 21 173.079 21C173.586 21 174.028 20.766 174.561 20.246C175.25 19.557 175.809 18.686 175.809 18.283C175.809 18.114 175.705 17.893 175.588 17.763C175.523 17.698 175.458 17.659 175.393 17.659C175.315 17.659 175.237 17.75 175.042 18.01C174.587 18.673 174.21 19.037 173.989 19.037C173.911 19.037 173.846 18.985 173.846 18.894C173.846 18.803 173.898 18.621 173.989 18.4C174.236 17.737 174.587 16.957 174.86 16.476C175.055 16.125 175.107 15.995 175.107 15.865C175.107 15.761 175.055 15.67 174.886 15.462C174.873 15.436 174.821 15.384 174.756 15.293C174.6 15.085 174.444 15.007 174.21 15.007ZM175.96 19.245C175.96 20.246 176.597 21.013 177.429 21.013C177.91 21.013 178.313 20.805 178.833 20.298C178.937 20.194 178.989 20.168 179.028 20.168C179.08 20.168 179.093 20.194 179.145 20.324C179.288 20.779 179.574 21 179.99 21C180.341 21 180.731 20.857 181.043 20.61C181.615 20.181 182.174 19.518 182.603 18.764C182.707 18.582 182.746 18.439 182.746 18.322C182.746 18.166 182.655 17.932 182.538 17.776C182.473 17.672 182.408 17.633 182.356 17.633C182.317 17.633 182.265 17.659 182.226 17.685C182.174 17.737 182.161 17.75 181.836 18.205C181.433 18.738 181.108 19.037 180.9 19.037C180.822 19.037 180.77 18.972 180.77 18.881C180.77 18.725 180.874 18.4 181.108 17.88L181.42 17.191C181.524 16.97 181.563 16.814 181.563 16.658C181.563 16.45 181.42 16.281 181.134 16.138L180.627 15.904C180.523 15.852 180.419 15.774 180.328 15.657L180.12 15.397C179.899 15.124 179.639 14.994 179.288 14.994C178.625 14.994 177.845 15.475 177.169 16.307C176.428 17.191 175.96 18.348 175.96 19.245ZM177.884 18.855C177.91 18.439 178.222 17.763 178.664 17.204C178.924 16.866 179.158 16.697 179.327 16.697C179.483 16.697 179.574 16.814 179.574 16.996C179.574 17.334 179.327 17.932 178.989 18.4C178.664 18.855 178.313 19.141 178.092 19.141C177.975 19.141 177.871 19.011 177.884 18.855ZM137.9 24.329C137.432 24.329 136.951 24.615 136.925 24.901L136.912 25.096C136.899 25.2 136.821 25.382 136.652 25.733C136.522 25.993 136.327 26.383 136.158 26.721C135.612 27.774 134.949 29.308 134.507 30.504C134.286 31.089 134.208 31.427 134.208 31.661C134.208 31.934 134.273 32.168 134.442 32.389C134.832 32.922 134.923 33 135.222 33C135.534 33 135.911 32.844 136.106 32.636C136.184 32.558 136.21 32.48 136.21 32.324C136.21 32.298 136.21 32.246 136.21 32.155C136.236 31.791 136.236 31.713 136.262 31.583C136.34 31.141 136.548 30.426 136.756 29.867C137.107 28.931 137.133 28.879 137.224 28.879C137.276 28.879 137.289 28.905 137.289 29.048C137.341 30.14 137.419 31.011 137.523 31.492C137.744 32.48 138.251 33 138.966 33C139.551 33 140.162 32.545 140.162 32.116C140.162 32.038 140.136 31.986 140.006 31.895C139.798 31.726 139.72 31.596 139.577 31.219C139.421 30.816 139.343 30.491 139.252 29.789C139.187 29.191 139.148 28.827 139.148 28.619C139.148 28.45 139.187 28.346 139.317 28.19C139.59 27.852 139.863 27.592 140.396 27.176C140.877 26.799 141.033 26.695 141.722 26.253C142.567 25.694 142.619 25.655 142.619 25.499C142.619 25.395 142.541 25.252 142.346 24.992C142.008 24.524 141.774 24.355 141.475 24.355C141.111 24.355 140.708 24.576 140.045 25.122C139.538 25.538 138.953 26.097 138.524 26.565L137.965 27.189C137.9 27.267 137.874 27.28 137.848 27.28C137.822 27.28 137.796 27.267 137.796 27.241C137.796 27.215 137.809 27.176 137.861 27.085C138.056 26.708 138.316 26.266 138.537 25.941C138.771 25.59 138.862 25.369 138.862 25.2C138.862 25.044 138.758 24.888 138.472 24.602C138.251 24.407 138.095 24.329 137.9 24.329ZM142.959 25.551C142.959 25.772 143.05 25.941 143.245 26.11L143.596 26.396C143.856 26.617 143.973 26.669 144.194 26.669C144.662 26.669 145.052 26.279 145.052 25.811C145.052 25.499 144.987 25.382 144.571 25.044L144.35 24.875C144.168 24.719 144.012 24.654 143.817 24.654C143.362 24.654 142.959 25.07 142.959 25.551ZM143.297 27.007C143.024 27.007 142.686 27.111 142.491 27.267C142.348 27.371 142.309 27.436 142.283 27.605C142.231 27.943 142.205 28.034 141.633 29.399C141.191 30.426 141.009 31.076 141.009 31.596C141.009 32.441 141.477 33 142.166 33C142.673 33 143.115 32.766 143.648 32.246C144.337 31.557 144.896 30.686 144.896 30.283C144.896 30.114 144.792 29.893 144.675 29.763C144.61 29.698 144.545 29.659 144.48 29.659C144.402 29.659 144.324 29.75 144.129 30.01C143.674 30.673 143.297 31.037 143.076 31.037C142.998 31.037 142.933 30.985 142.933 30.894C142.933 30.803 142.985 30.621 143.076 30.4C143.323 29.737 143.674 28.957 143.947 28.476C144.142 28.125 144.194 27.995 144.194 27.865C144.194 27.761 144.142 27.67 143.973 27.462C143.96 27.436 143.908 27.384 143.843 27.293C143.687 27.085 143.531 27.007 143.297 27.007ZM146.97 30.634C147.165 30.66 147.269 30.66 147.412 30.66C148.79 30.66 149.856 29.672 149.856 28.424C149.856 27.553 149.31 26.955 148.504 26.955C146.866 26.955 145.046 29.126 145.046 31.076C145.046 32.233 145.826 33.039 146.931 33.039C147.594 33.039 148.179 32.753 148.686 32.194C149.063 31.791 149.31 31.297 149.31 30.972C149.31 30.79 149.193 30.647 149.024 30.647C148.907 30.647 148.842 30.699 148.517 30.985C148.166 31.297 147.867 31.453 147.555 31.453C147.217 31.453 146.944 31.18 146.944 30.829C146.944 30.777 146.957 30.712 146.97 30.634ZM147.425 29.425C147.75 28.879 148.14 28.502 148.387 28.502C148.491 28.502 148.556 28.567 148.556 28.671C148.556 28.853 148.374 29.113 148.14 29.269C147.984 29.386 147.802 29.425 147.542 29.425C147.516 29.425 147.49 29.425 147.425 29.425ZM152.106 26.981C151.664 26.981 151.17 27.28 151.131 27.566L151.092 27.904C151.079 27.969 151.04 28.099 150.962 28.281C150.533 29.282 150.273 30.036 150.052 30.829C149.883 31.401 149.831 31.687 149.831 31.908C149.831 32.142 149.909 32.337 150.091 32.545C150.377 32.883 150.546 33 150.767 33C151.235 33 151.625 32.675 151.625 32.298C151.625 32.22 151.625 32.181 151.625 32.155C151.625 31.791 151.703 31.362 151.859 30.933C152.249 29.867 152.912 29.035 153.354 29.035C153.445 29.035 153.549 29.087 153.601 29.178L153.757 29.412C153.809 29.477 153.861 29.516 153.926 29.516C154.095 29.516 154.29 29.399 154.511 29.178C154.888 28.801 155.109 28.307 155.109 27.839C155.109 27.345 154.771 26.981 154.329 26.981C154.017 26.981 153.718 27.163 153.328 27.618L152.977 28.034C152.912 28.112 152.873 28.138 152.847 28.138C152.808 28.138 152.782 28.125 152.782 28.086C152.782 28.06 152.795 28.021 152.821 27.969C152.873 27.852 152.899 27.774 152.899 27.709C152.899 27.579 152.769 27.384 152.522 27.163C152.392 27.046 152.262 26.981 152.106 26.981ZM154.619 31.18C154.619 32.272 155.347 33.052 156.361 33.052C157.934 33.052 159.572 31.011 159.572 29.035C159.572 28.866 159.559 28.697 159.52 28.528L159.403 27.982C159.312 27.592 159.26 27.475 159.117 27.306C158.87 27.033 158.493 26.877 158.103 26.877C157.453 26.877 156.595 27.384 155.906 28.177C155.126 29.061 154.619 30.244 154.619 31.18ZM156.465 30.673C156.465 30.4 156.634 29.997 156.907 29.581C157.219 29.087 157.518 28.814 157.739 28.814C157.882 28.814 157.973 28.944 157.973 29.139C157.973 29.412 157.83 29.828 157.596 30.218C157.297 30.725 157.011 30.998 156.751 31.011C156.595 31.011 156.465 30.868 156.465 30.673ZM161.621 26.968C161.348 26.968 161.036 27.085 160.841 27.254C160.711 27.371 160.659 27.449 160.633 27.67C160.581 27.982 160.555 28.073 160.425 28.45C160.269 28.918 160.191 29.23 160.113 29.607C159.983 30.231 159.892 30.959 159.892 31.362C159.892 31.947 159.996 32.181 160.425 32.48C161.01 32.896 161.166 32.974 161.374 32.974C161.647 32.974 161.842 32.844 161.998 32.545L162.726 31.167C162.947 30.751 163.194 30.348 163.454 29.971C163.48 29.945 163.493 29.932 163.519 29.906C163.532 29.893 163.545 29.893 163.571 29.893C163.597 29.893 163.61 29.906 163.61 29.945C163.61 29.958 163.61 29.971 163.61 29.997C163.48 30.465 163.363 31.245 163.363 31.609C163.363 32.064 163.48 32.272 163.961 32.571C164.559 32.948 164.663 33.013 164.858 33.013C165.118 33.013 165.404 32.792 165.846 32.272C166.548 31.427 167.133 30.335 167.679 28.905L167.783 28.619L167.952 28.164C167.991 28.086 168.004 27.982 168.004 27.904C168.004 27.735 167.926 27.605 167.653 27.358C167.354 27.059 167.25 27.007 167.068 27.007C166.613 27.007 166.093 27.319 166.093 27.605C166.093 27.631 166.106 27.709 166.119 27.8C166.145 27.878 166.145 27.956 166.145 28.047C166.145 28.489 165.911 29.178 165.508 29.88C165.287 30.283 165.209 30.374 165.131 30.374C165.092 30.374 165.053 30.335 165.053 30.296C165.053 30.205 165.157 29.737 165.261 29.373L165.547 28.294C165.586 28.177 165.612 28.021 165.612 27.93C165.612 27.696 165.495 27.527 165.183 27.306C164.858 27.098 164.598 26.994 164.403 26.994C164.169 26.994 163.935 27.111 163.649 27.384C163.337 27.696 162.895 28.268 162.557 28.814C162.375 29.126 162.024 29.724 161.907 29.945C161.777 30.192 161.725 30.257 161.673 30.257C161.634 30.257 161.621 30.231 161.621 30.192C161.621 30.153 161.66 30.023 161.725 29.815L161.829 29.49C161.933 29.178 162.102 28.762 162.323 28.294C162.44 28.034 162.479 27.93 162.479 27.813C162.479 27.696 162.44 27.618 162.258 27.41L162.063 27.189C161.933 27.033 161.803 26.968 161.621 26.968ZM167.809 31.063C167.809 32.194 168.524 33.013 169.538 33.013C170.123 33.013 170.734 32.753 171.163 32.337C171.631 31.856 171.969 31.193 171.969 30.738C171.969 30.543 171.852 30.387 171.683 30.387C171.553 30.387 171.527 30.4 171.176 30.751C170.773 31.154 170.422 31.362 170.149 31.362C169.876 31.362 169.681 31.128 169.681 30.79C169.681 30.322 170.058 29.529 170.578 28.905C170.682 28.775 170.76 28.723 170.825 28.723C170.877 28.723 170.916 28.775 170.916 28.853C170.916 28.892 170.916 28.931 170.903 28.97L170.838 29.204C170.825 29.243 170.825 29.295 170.825 29.334C170.825 29.399 170.864 29.503 170.942 29.633C171.059 29.789 171.163 29.854 171.358 29.854C171.943 29.854 172.359 29.243 172.359 28.385C172.359 27.553 171.813 26.994 170.994 26.994C169.499 26.994 167.809 29.152 167.809 31.063ZM172.456 31.18C172.456 32.272 173.184 33.052 174.198 33.052C175.771 33.052 177.409 31.011 177.409 29.035C177.409 28.866 177.396 28.697 177.357 28.528L177.24 27.982C177.149 27.592 177.097 27.475 176.954 27.306C176.707 27.033 176.33 26.877 175.94 26.877C175.29 26.877 174.432 27.384 173.743 28.177C172.963 29.061 172.456 30.244 172.456 31.18ZM174.302 30.673C174.302 30.4 174.471 29.997 174.744 29.581C175.056 29.087 175.355 28.814 175.576 28.814C175.719 28.814 175.81 28.944 175.81 29.139C175.81 29.412 175.667 29.828 175.433 30.218C175.134 30.725 174.848 30.998 174.588 31.011C174.432 31.011 174.302 30.868 174.302 30.673ZM178.41 25.265C178.41 25.174 178.371 25.044 178.293 24.862C178.228 24.745 178.189 24.641 178.15 24.55L178.059 24.329C177.968 24.121 177.825 24.017 177.656 24.017C177.422 24.017 177.084 24.225 176.59 24.68C176.083 25.148 175.849 25.473 175.849 25.746C175.849 25.889 175.966 26.071 176.135 26.227C176.252 26.331 176.343 26.37 176.434 26.37C176.499 26.37 176.564 26.344 176.642 26.279L176.915 26.058C177.136 25.876 177.422 25.733 177.669 25.668L178.137 25.551C178.306 25.512 178.41 25.395 178.41 25.265ZM179.458 26.968C179.185 26.968 178.873 27.085 178.678 27.254C178.548 27.371 178.496 27.449 178.47 27.67C178.418 27.982 178.392 28.073 178.262 28.45C178.106 28.918 178.028 29.23 177.95 29.607C177.82 30.231 177.729 30.959 177.729 31.362C177.729 31.947 177.833 32.181 178.262 32.48C178.847 32.896 179.003 32.974 179.211 32.974C179.484 32.974 179.679 32.844 179.835 32.545L180.563 31.167C180.784 30.751 181.031 30.348 181.291 29.971C181.317 29.945 181.33 29.932 181.356 29.906C181.369 29.893 181.382 29.893 181.408 29.893C181.434 29.893 181.447 29.906 181.447 29.945C181.447 29.958 181.447 29.971 181.447 29.997C181.317 30.465 181.2 31.245 181.2 31.609C181.2 32.064 181.317 32.272 181.798 32.571C182.396 32.948 182.5 33.013 182.695 33.013C182.955 33.013 183.241 32.792 183.683 32.272C184.385 31.427 184.97 30.335 185.516 28.905L185.62 28.619L185.789 28.164C185.828 28.086 185.841 27.982 185.841 27.904C185.841 27.735 185.763 27.605 185.49 27.358C185.191 27.059 185.087 27.007 184.905 27.007C184.45 27.007 183.93 27.319 183.93 27.605C183.93 27.631 183.943 27.709 183.956 27.8C183.982 27.878 183.982 27.956 183.982 28.047C183.982 28.489 183.748 29.178 183.345 29.88C183.124 30.283 183.046 30.374 182.968 30.374C182.929 30.374 182.89 30.335 182.89 30.296C182.89 30.205 182.994 29.737 183.098 29.373L183.384 28.294C183.423 28.177 183.449 28.021 183.449 27.93C183.449 27.696 183.332 27.527 183.02 27.306C182.695 27.098 182.435 26.994 182.24 26.994C182.006 26.994 181.772 27.111 181.486 27.384C181.174 27.696 180.732 28.268 180.394 28.814C180.212 29.126 179.861 29.724 179.744 29.945C179.614 30.192 179.562 30.257 179.51 30.257C179.471 30.257 179.458 30.231 179.458 30.192C179.458 30.153 179.497 30.023 179.562 29.815L179.666 29.49C179.77 29.178 179.939 28.762 180.16 28.294C180.277 28.034 180.316 27.93 180.316 27.813C180.316 27.696 180.277 27.618 180.095 27.41L179.9 27.189C179.77 27.033 179.64 26.968 179.458 26.968Z" fill="white"/>
<line x1="121.5" x2="121.5" y2="30" stroke="white"/>
</svg>
