<svg width="275" height="57" viewBox="0 0 275 57" fill="none" xmlns="http://www.w3.org/2000/svg">
<path d="M2.32 30.92C1.12 32.9 0.58 34.28 0.58 35.48C0.58 38 3.46 41 5.92 41C7.36 41 7.84 40.4 8.62 37.76C8.92 36.8 9.34 35.78 9.82 34.7C10.54 33.2 10.9 32.72 11.56 32.48C12.7 32.06 15.34 31.7 18.7 31.52C18.58 32.84 18.52 33.74 18.52 34.7C18.52 36.56 18.82 37.58 19.78 38.6C21.46 40.4 22.48 40.94 23.92 40.94C26.14 40.94 27.82 39.68 27.82 38C27.82 37.76 27.76 37.28 27.7 36.8C27.58 35.72 27.52 34.76 27.52 33.98C27.52 31.34 27.88 27.5 28.36 24.32C29.14 19.64 30.76 13.34 32.38 8.54C33.04 6.74 33.16 6.14 33.16 5.6C33.16 5 32.86 4.34 32.2 3.68L31.18 2.66C29.02 0.499999 28.78 0.319998 27.58 0.319998C26.56 0.319998 25.72 0.679997 24.4 1.64C22 3.38 18.34 7.16 15.16 11.12C12.4 14.48 8.44 20.06 6.82 22.82C5.02 25.76 4.9 25.94 3.46 26.42C2.02 26.9 1.6 27.32 1.6 28.34C1.6 29.06 1.78 29.6 2.32 30.92ZM19.84 23.72C18.46 23.96 17.38 24.14 16.66 24.26C16.54 24.26 16.42 24.26 16.3 24.26C16.06 24.26 15.88 24.14 15.88 23.96C15.88 23.66 16.06 23.36 16.66 22.4L18.52 19.64C18.64 19.46 18.94 19.1 19.78 18.02C20.08 17.6 20.38 17.18 20.74 16.82C21.16 16.22 21.22 16.16 21.34 16.04C21.64 15.74 21.76 15.62 22 15.62C22.12 15.62 22.24 15.74 22.24 15.86C22.24 15.98 22.18 16.16 22.06 16.52C20.74 19.94 20.38 21.14 19.84 23.72ZM32.3941 32.36C32.3941 37.58 35.1541 40.94 39.4141 40.94C42.3541 40.94 45.2941 39.08 47.7541 35.72C48.1141 35.24 48.2941 35.12 48.5341 35.12C48.7741 35.12 48.8941 35.3 48.9541 35.72C49.0141 38.72 51.2341 41 54.0541 41C55.3141 41 55.9141 40.34 56.0941 38.72C56.9341 30.92 60.1741 21.02 64.6141 12.92L67.8541 6.98C68.4541 5.9 68.6941 5.3 68.6941 4.76C68.6941 4.46 68.5741 4.22 68.2741 3.86C67.9141 3.32 67.3741 2.6 67.1341 2.3C66.2941 1.4 65.5141 0.979997 64.3741 0.979997C61.6741 0.979997 59.9941 3.02 56.0341 11.06C54.3541 14.54 52.7941 17.6 51.4141 20.12C49.4341 23.84 47.4541 26.96 46.0141 28.64C44.6341 30.2 43.5541 30.98 42.7741 30.98C42.0541 30.98 41.6341 30.44 41.6341 29.48C41.6341 28.22 42.1141 26.36 42.9541 24.02C44.9941 18.56 47.5741 14.06 52.4341 7.58C53.2741 6.5 53.6341 5.78 53.6341 5.3C53.6341 4.7 53.1541 3.98 52.0741 2.78C50.8141 1.4 50.0941 1.04 48.7741 1.04C46.3141 1.04 44.3341 2.12 44.1541 3.62C44.0341 4.64 43.6741 5.24 41.8741 7.94C38.7541 12.5 36.7141 16.4 34.9741 21.02C33.2941 25.58 32.3941 29.36 32.3941 32.36ZM69.3494 35.06C69.3494 36.62 70.0094 37.94 71.6894 39.68C72.5894 40.58 73.3694 41 74.3294 41C76.4294 41 78.6494 39.32 78.7094 37.76V36.56C78.7094 34.46 79.6094 30.56 80.9894 26.6C82.4894 22.34 84.1094 18.56 86.6294 13.52C87.7694 11.24 88.2494 10.46 88.6094 10.1C89.1494 9.62 90.5294 9.26 92.2094 9.26C93.1094 9.26 93.9494 9.38 94.7294 9.56C94.9694 9.62 95.2094 9.62 95.3294 9.62C96.1694 9.62 96.8894 8.36 96.8894 6.74C96.8894 3.32 94.5494 1.04 91.0094 1.04C89.9294 1.04 88.4894 1.22 85.1294 1.88L80.7494 2.66C77.2694 3.32 76.0094 3.5 74.8094 3.5C73.9694 3.5 73.2494 3.44 72.2294 3.26C72.0494 3.2 71.9294 3.2 71.8094 3.2C70.9094 3.2 70.2494 4.4 70.2494 6.08C70.2494 9.5 72.2294 11.72 75.2894 11.72C75.8894 11.72 76.0094 11.66 77.1494 11.48C77.2694 11.48 77.3894 11.42 77.5094 11.42C77.8094 11.42 77.9894 11.66 77.9894 12.08C77.9894 12.32 77.9294 12.62 77.6894 12.98L76.0694 16.34C74.0894 20.42 72.3494 24.62 70.6694 29.48C69.8294 31.82 69.3494 34.04 69.3494 35.06ZM89.8103 30.26C89.8103 36.68 93.5903 41.3 98.9903 41.3C104.99 41.3 111.29 36.44 115.79 28.46C118.61 23.36 120.11 18.26 120.11 13.76C120.11 12.38 119.99 11.18 119.75 10.28L119.27 8.24C119.21 7.94 119.09 7.4 118.97 6.8C118.49 4.58 118.07 3.74 116.63 2.54C115.13 1.28 113.93 0.74 112.49 0.74C110.21 0.74 107.27 2.18 103.79 5C95.8703 11.3 89.8103 22.28 89.8103 30.26ZM99.1103 28.82C99.1103 25.16 102.47 18.32 106.37 13.94C108.77 11.18 110.57 9.8 111.65 9.8C112.31 9.8 112.79 10.4 112.79 11.36C112.79 14.36 110.69 20.06 107.93 24.5C105.47 28.52 102.53 31.34 100.85 31.34C99.8303 31.34 99.1103 30.26 99.1103 28.82ZM132.173 21.5C130.433 21.5 127.373 21.86 125.273 22.22C121.913 22.88 120.953 23.42 120.953 24.68C120.953 25.04 121.013 25.46 121.133 25.88L121.793 27.56L122.273 28.94C122.633 30.02 123.293 30.56 124.073 30.56C124.553 30.56 124.673 30.56 127.673 29.72C129.713 29.12 131.093 28.88 132.173 28.88C133.013 28.88 134.033 29 134.693 29.24C134.933 29.3 135.173 29.36 135.293 29.36C136.013 29.36 136.493 28.4 136.493 26.96C136.493 23.3 135.053 21.5 132.173 21.5ZM145.827 16.64C145.827 19.58 147.087 22.28 149.667 24.8L151.707 26.84C152.787 27.92 153.267 28.76 153.267 29.66C153.267 31.34 151.587 32.6 149.427 32.6C147.807 32.6 147.087 32.18 145.467 30.14C144.567 29 143.847 28.58 142.647 28.58C140.367 28.58 138.627 30.5 138.627 33.14C138.627 37.58 143.367 41.06 149.547 41.06C156.987 41.06 163.047 36.2 163.047 30.14C163.047 27.38 162.207 25.94 158.667 22.52C155.667 19.64 154.827 18.2 154.827 16.34C154.827 14.72 155.787 12.86 157.587 11.3C158.667 10.34 159.627 9.8 160.347 9.8C160.767 9.8 161.007 10.04 161.007 10.4C161.007 10.76 160.827 11.36 160.347 12.32C159.747 13.58 159.507 14.18 159.507 14.72C159.507 15.26 159.987 16.64 160.527 17.9C161.127 19.22 162.027 19.82 163.347 19.82C164.787 19.82 166.227 19.04 167.007 17.78C168.207 15.92 168.927 13.34 168.927 10.94C168.927 8.42 168.087 5.96 166.527 3.8C165.087 1.82 163.527 0.979997 161.427 0.979997C158.847 0.979997 155.787 2.24 152.847 4.58C148.047 8.3 145.827 12.2 145.827 16.64Z" fill="#1E1E1E"/>
<path d="M182.26 1V41" stroke="black"/>
<path d="M212.66 4.54C212.66 4.88 212.34 5.26 211.5 5.92C210.74 6.5 210.26 6.74 209.92 6.74C209.78 6.74 209.6 6.66 209.42 6.52C209.18 6.32 209 6.02 209 5.82C209 5.7 209.06 5.62 209.18 5.48C209.8 4.82 210 4.58 210.14 4.3L210.5 3.58C210.66 3.3 210.84 3.16 211.06 3.16C211.32 3.16 211.44 3.24 212.06 3.74C212.52 4.12 212.66 4.3 212.66 4.54Z" fill="black"/>
<path d="M195.787 12.42C195.787 14.56 197.047 16.1 198.847 16.1C200.847 16.1 202.947 14.48 204.447 11.82C205.387 10.12 205.887 8.42 205.887 6.92C205.887 6.46 205.847 6.06 205.767 5.76L205.607 5.08C205.587 4.98 205.547 4.8 205.507 4.6C205.347 3.86 205.207 3.58 204.727 3.18C204.227 2.76 203.827 2.58 203.347 2.58C202.587 2.58 201.607 3.06 200.447 4C197.807 6.1 195.787 9.76 195.787 12.42ZM198.887 11.94C198.887 10.72 200.007 8.44 201.307 6.98C202.107 6.06 202.707 5.6 203.067 5.6C203.287 5.6 203.447 5.8 203.447 6.12C203.447 7.12 202.747 9.02 201.827 10.5C201.007 11.84 200.027 12.78 199.467 12.78C199.127 12.78 198.887 12.42 198.887 11.94ZM211.108 13.62C211.108 13.04 210.888 12.7 210.048 11.96C209.268 11.26 209.048 10.96 209.048 10.54C209.048 10.24 209.208 9.96 209.488 9.72C209.708 9.54 209.948 9.42 210.088 9.42C210.228 9.42 210.328 9.52 210.328 9.64C210.328 9.7 210.308 9.76 210.188 9.88C209.968 10.16 209.928 10.24 209.928 10.38C209.928 10.54 209.988 10.66 210.268 11.06C210.528 11.46 210.728 11.58 211.068 11.58C211.808 11.58 212.588 10.6 212.588 9.62C212.588 9.48 212.568 9.34 212.528 9.2L212.368 8.7C212.328 8.58 212.288 8.42 212.248 8.24C212.008 7.18 211.568 6.8 210.488 6.8C208.308 6.8 206.268 8.5 206.268 10.34C206.268 11.02 206.528 11.46 207.348 12.2L207.748 12.54C208.068 12.84 208.188 13.02 208.188 13.2C208.188 13.44 207.948 13.64 207.668 13.64C207.488 13.64 207.368 13.58 207.248 13.4L207.048 13.12C206.768 12.72 206.548 12.6 206.148 12.6C205.468 12.6 204.968 13.1 204.968 13.78C204.968 15.06 206.228 16 207.948 16C209.768 16 211.108 15 211.108 13.62ZM216.012 6.74C215.332 6.74 214.572 7.2 214.512 7.64L214.452 8.16C214.432 8.26 214.372 8.46 214.252 8.74C213.592 10.28 213.192 11.44 212.852 12.66C212.592 13.54 212.512 13.98 212.512 14.32C212.512 14.68 212.632 14.98 212.912 15.3C213.352 15.82 213.612 16 213.952 16C214.672 16 215.272 15.5 215.272 14.92C215.272 14.8 215.272 14.74 215.272 14.7C215.272 14.14 215.392 13.48 215.632 12.82C216.232 11.18 217.252 9.9 217.932 9.9C218.072 9.9 218.232 9.98 218.312 10.12L218.552 10.48C218.632 10.58 218.712 10.64 218.812 10.64C219.072 10.64 219.372 10.46 219.712 10.12C220.292 9.54 220.632 8.78 220.632 8.06C220.632 7.3 220.112 6.74 219.432 6.74C218.952 6.74 218.492 7.02 217.892 7.72L217.352 8.36C217.252 8.48 217.192 8.52 217.152 8.52C217.092 8.52 217.052 8.5 217.052 8.44C217.052 8.4 217.072 8.34 217.112 8.26C217.192 8.08 217.232 7.96 217.232 7.86C217.232 7.66 217.032 7.36 216.652 7.02C216.452 6.84 216.252 6.74 216.012 6.74ZM219.878 13.2C219.878 14.88 220.998 16.08 222.558 16.08C224.978 16.08 227.498 12.94 227.498 9.9C227.498 9.64 227.478 9.38 227.418 9.12L227.238 8.28C227.098 7.68 227.018 7.5 226.798 7.24C226.418 6.82 225.838 6.58 225.238 6.58C224.238 6.58 222.918 7.36 221.858 8.58C220.658 9.94 219.878 11.76 219.878 13.2ZM222.718 12.42C222.718 12 222.978 11.38 223.398 10.74C223.878 9.98 224.338 9.56 224.678 9.56C224.898 9.56 225.038 9.76 225.038 10.06C225.038 10.48 224.818 11.12 224.458 11.72C223.998 12.5 223.558 12.92 223.158 12.94C222.918 12.94 222.718 12.72 222.718 12.42ZM227.69 13.3C227.69 14.82 228.65 16.02 229.91 16.02C230.77 16.02 231.35 15.72 232.31 14.78C232.35 14.72 232.39 14.7 232.43 14.7C232.51 14.7 232.55 14.76 232.63 14.96C232.87 15.72 233.25 16.02 233.95 16.02C234.87 16.02 235.65 15.56 236.59 14.48C237.57 13.34 238.13 12.36 238.13 11.78C238.13 11.3 237.81 10.74 237.53 10.74C237.41 10.74 237.31 10.82 237.15 11.08L236.73 11.7C236.25 12.4 235.65 12.96 235.39 12.96C235.27 12.96 235.19 12.86 235.19 12.7C235.19 12.5 235.31 12.12 235.69 11.08C236.09 9.98 236.47 9.14 237.13 7.8C237.97 6.1 238.33 5.42 238.59 4.96C238.99 4.32 239.03 4.2 239.03 3.98C239.03 3.84 238.97 3.68 238.89 3.58L238.49 3.14L238.27 2.86C238.11 2.7 237.83 2.6 237.55 2.6C237.19 2.6 236.79 2.74 236.43 3C236.23 3.16 236.17 3.24 236.11 3.5C236.07 3.76 236.03 3.88 235.97 4.04C235.87 4.28 235.59 4.88 235.29 5.46L234.71 6.64C234.41 7.28 234.37 7.34 234.27 7.34C234.21 7.34 234.17 7.32 234.11 7.28L233.85 7.08C233.51 6.82 233.19 6.72 232.79 6.72C231.81 6.72 230.57 7.54 229.47 8.92C228.39 10.26 227.69 12 227.69 13.3ZM232.63 11.76C232.31 12.18 232.21 12.3 232.03 12.5C231.69 12.9 231.27 13.16 230.99 13.16C230.79 13.16 230.67 13 230.67 12.74C230.67 12.22 231.17 11.08 231.71 10.36C232.21 9.72 232.57 9.44 232.87 9.44C233.11 9.44 233.25 9.6 233.25 9.86C233.25 10.18 232.99 10.96 232.63 11.76ZM241.236 12.36C241.536 12.4 241.696 12.4 241.916 12.4C244.036 12.4 245.676 10.88 245.676 8.96C245.676 7.62 244.836 6.7 243.596 6.7C241.076 6.7 238.276 10.04 238.276 13.04C238.276 14.82 239.476 16.06 241.176 16.06C242.196 16.06 243.096 15.62 243.876 14.76C244.456 14.14 244.836 13.38 244.836 12.88C244.836 12.6 244.656 12.38 244.396 12.38C244.216 12.38 244.116 12.46 243.616 12.9C243.076 13.38 242.616 13.62 242.136 13.62C241.616 13.62 241.196 13.2 241.196 12.66C241.196 12.58 241.216 12.48 241.236 12.36ZM241.936 10.5C242.436 9.66 243.036 9.08 243.416 9.08C243.576 9.08 243.676 9.18 243.676 9.34C243.676 9.62 243.396 10.02 243.036 10.26C242.796 10.44 242.516 10.5 242.116 10.5C242.076 10.5 242.036 10.5 241.936 10.5ZM245.637 14.36C245.637 14.78 245.737 14.98 246.097 15.42C246.477 15.88 246.677 16 247.057 16C247.797 16 248.417 15.5 248.417 14.88C248.417 14.82 248.417 14.72 248.397 14.58C248.397 14.52 248.397 14.46 248.397 14.42C248.397 13.72 248.677 12.92 249.137 12.24C249.397 11.86 249.697 11.58 249.877 11.58C249.937 11.58 249.977 11.62 249.977 11.66C249.977 11.68 249.977 11.68 249.917 11.88C249.757 12.44 249.657 13.08 249.657 13.6C249.657 15.02 250.477 16.02 251.617 16.02C252.477 16.02 253.317 15.46 254.157 14.28C254.857 13.32 255.357 12.34 255.357 11.94C255.357 11.68 255.237 11.26 255.057 11.02C254.957 10.86 254.857 10.78 254.737 10.78C254.597 10.78 254.477 10.9 254.297 11.14C253.477 12.38 253.077 12.78 252.717 12.78C252.557 12.78 252.477 12.64 252.477 12.36C252.477 12 252.517 11.5 252.637 10.9C252.757 10.26 252.817 10 252.897 9.88C252.997 9.7 253.377 9.56 253.697 9.56C253.797 9.56 253.897 9.56 254.017 9.6C254.117 9.62 254.197 9.64 254.237 9.64C254.417 9.64 254.657 9.48 254.877 9.22C255.177 8.86 255.397 8.36 255.397 8.06C255.397 7.34 254.717 6.72 253.957 6.72C253.077 6.72 251.937 7.28 250.757 8.34C250.597 8.48 250.577 8.5 250.537 8.5C250.477 8.5 250.437 8.46 250.437 8.4C250.437 8.32 250.457 8.26 250.537 8.1C250.577 8.04 250.697 7.82 250.877 7.48C251.217 6.8 251.617 6.08 252.077 5.3C252.537 4.52 252.657 4.28 252.657 4.04C252.657 3.82 252.537 3.64 252.117 3.16C251.717 2.72 251.537 2.62 251.177 2.62C250.857 2.62 250.437 2.74 250.117 2.92C249.777 3.1 249.717 3.18 249.637 3.68C249.577 4.06 249.397 4.48 248.977 5.28C248.117 6.94 247.257 8.86 246.557 10.76C245.977 12.34 245.637 13.68 245.637 14.36ZM197.467 25.88C197.467 26.86 197.887 27.76 198.747 28.6L199.427 29.28C199.787 29.64 199.947 29.92 199.947 30.22C199.947 30.78 199.387 31.2 198.667 31.2C198.127 31.2 197.887 31.06 197.347 30.38C197.047 30 196.807 29.86 196.407 29.86C195.647 29.86 195.067 30.5 195.067 31.38C195.067 32.86 196.647 34.02 198.707 34.02C201.187 34.02 203.207 32.4 203.207 30.38C203.207 29.46 202.927 28.98 201.747 27.84C200.747 26.88 200.467 26.4 200.467 25.78C200.467 25.24 200.787 24.62 201.387 24.1C201.747 23.78 202.067 23.6 202.307 23.6C202.447 23.6 202.527 23.68 202.527 23.8C202.527 23.92 202.467 24.12 202.307 24.44C202.107 24.86 202.027 25.06 202.027 25.24C202.027 25.42 202.187 25.88 202.367 26.3C202.567 26.74 202.867 26.94 203.307 26.94C203.787 26.94 204.267 26.68 204.527 26.26C204.927 25.64 205.167 24.78 205.167 23.98C205.167 23.14 204.887 22.32 204.367 21.6C203.887 20.94 203.367 20.66 202.667 20.66C201.807 20.66 200.787 21.08 199.807 21.86C198.207 23.1 197.467 24.4 197.467 25.88ZM208.27 27.34C208.27 27.38 208.23 27.42 208.13 27.5L207.47 28.04C204.93 30.06 203.89 31.24 203.89 32.06C203.89 32.36 203.93 32.48 204.41 33.1C205.03 33.92 205.13 34.02 205.47 34.02C205.57 34.02 205.71 33.98 205.87 33.96L206.97 33.68C207.31 33.6 207.73 33.56 208.21 33.56C208.67 33.56 209.03 33.62 209.37 33.72L209.67 33.82C209.75 33.84 209.81 33.86 209.87 33.86C209.95 33.86 210.03 33.82 210.15 33.76C210.61 33.48 210.91 32.96 210.91 32.44C210.91 31.66 210.29 31.12 209.45 31.12C209.21 31.12 208.91 31.14 208.63 31.2C208.35 31.26 208.29 31.28 208.19 31.28C208.11 31.28 208.05 31.24 208.05 31.18C208.05 31.1 208.11 30.98 208.27 30.82C208.51 30.54 209.25 29.86 209.87 29.36L211.41 28.12C212.09 27.56 212.29 27.26 212.29 26.82C212.29 26.52 212.13 25.9 211.95 25.46C211.75 24.96 211.45 24.78 210.87 24.78C210.69 24.78 210.39 24.8 210.11 24.82L208.87 24.92L207.89 25C207.69 25.02 207.49 25.02 207.29 25.02C206.97 25.02 206.73 25 206.39 24.94C206.35 24.92 206.31 24.92 206.27 24.92C205.91 24.92 205.43 25.56 205.43 26.1C205.43 26.84 206.05 27.4 206.85 27.4C207.03 27.4 207.33 27.36 207.59 27.32C208.03 27.24 208.09 27.24 208.15 27.24C208.23 27.24 208.27 27.28 208.27 27.34ZM211.789 32.36C211.789 32.78 211.889 32.98 212.249 33.42C212.629 33.88 212.829 34 213.209 34C213.949 34 214.569 33.5 214.569 32.88C214.569 32.82 214.569 32.72 214.549 32.58C214.549 32.52 214.549 32.46 214.549 32.42C214.549 31.72 214.829 30.92 215.289 30.24C215.549 29.86 215.849 29.58 216.029 29.58C216.089 29.58 216.129 29.62 216.129 29.66C216.129 29.68 216.129 29.68 216.069 29.88C215.909 30.44 215.809 31.08 215.809 31.6C215.809 33.02 216.629 34.02 217.769 34.02C218.629 34.02 219.469 33.46 220.309 32.28C221.009 31.32 221.509 30.34 221.509 29.94C221.509 29.68 221.389 29.26 221.209 29.02C221.109 28.86 221.009 28.78 220.889 28.78C220.749 28.78 220.629 28.9 220.449 29.14C219.629 30.38 219.229 30.78 218.869 30.78C218.709 30.78 218.629 30.64 218.629 30.36C218.629 30 218.669 29.5 218.789 28.9C218.909 28.26 218.969 28 219.049 27.88C219.149 27.7 219.529 27.56 219.849 27.56C219.949 27.56 220.049 27.56 220.169 27.6C220.269 27.62 220.349 27.64 220.389 27.64C220.569 27.64 220.809 27.48 221.029 27.22C221.329 26.86 221.549 26.36 221.549 26.06C221.549 25.34 220.869 24.72 220.109 24.72C219.229 24.72 218.089 25.28 216.909 26.34C216.749 26.48 216.729 26.5 216.689 26.5C216.629 26.5 216.589 26.46 216.589 26.4C216.589 26.32 216.609 26.26 216.689 26.1C216.729 26.04 216.849 25.82 217.029 25.48C217.369 24.8 217.769 24.08 218.229 23.3C218.689 22.52 218.809 22.28 218.809 22.04C218.809 21.82 218.689 21.64 218.269 21.16C217.869 20.72 217.689 20.62 217.329 20.62C217.009 20.62 216.589 20.74 216.269 20.92C215.929 21.1 215.869 21.18 215.789 21.68C215.729 22.06 215.549 22.48 215.129 23.28C214.269 24.94 213.409 26.86 212.709 28.76C212.129 30.34 211.789 31.68 211.789 32.36ZM221.811 31.2C221.811 32.88 222.931 34.08 224.491 34.08C226.911 34.08 229.431 30.94 229.431 27.9C229.431 27.64 229.411 27.38 229.351 27.12L229.171 26.28C229.031 25.68 228.951 25.5 228.731 25.24C228.351 24.82 227.771 24.58 227.171 24.58C226.171 24.58 224.851 25.36 223.791 26.58C222.591 27.94 221.811 29.76 221.811 31.2ZM224.651 30.42C224.651 30 224.911 29.38 225.331 28.74C225.811 27.98 226.271 27.56 226.611 27.56C226.831 27.56 226.971 27.76 226.971 28.06C226.971 28.48 226.751 29.12 226.391 29.72C225.931 30.5 225.491 30.92 225.091 30.94C224.851 30.94 224.651 30.72 224.651 30.42ZM235.064 20.76C234.764 20.76 234.344 20.88 234.024 21.06C233.764 21.22 233.704 21.28 233.624 21.6C233.524 22 233.304 22.5 232.684 23.68C231.984 24.98 231.144 26.78 230.544 28.2C229.864 29.84 229.544 30.94 229.544 31.84C229.544 33.12 230.284 34 231.324 34C232.224 34 233.124 33.44 234.144 32.26C234.944 31.3 235.464 30.36 235.464 29.84C235.464 29.36 235.164 28.88 234.864 28.88C234.704 28.88 234.684 28.9 234.124 29.66C233.544 30.46 232.944 31.04 232.684 31.04C232.564 31.04 232.504 30.94 232.504 30.78C232.504 30.4 232.984 29.14 233.844 27.34C234.544 25.82 235.664 23.76 236.244 22.88C236.484 22.52 236.544 22.36 236.544 22.16C236.544 21.96 236.444 21.78 236.104 21.38C235.704 20.9 235.444 20.76 235.064 20.76ZM238.736 30.36C239.036 30.4 239.196 30.4 239.416 30.4C241.536 30.4 243.176 28.88 243.176 26.96C243.176 25.62 242.336 24.7 241.096 24.7C238.576 24.7 235.776 28.04 235.776 31.04C235.776 32.82 236.976 34.06 238.676 34.06C239.696 34.06 240.596 33.62 241.376 32.76C241.956 32.14 242.336 31.38 242.336 30.88C242.336 30.6 242.156 30.38 241.896 30.38C241.716 30.38 241.616 30.46 241.116 30.9C240.576 31.38 240.116 31.62 239.636 31.62C239.116 31.62 238.696 31.2 238.696 30.66C238.696 30.58 238.716 30.48 238.736 30.36ZM239.436 28.5C239.936 27.66 240.536 27.08 240.916 27.08C241.076 27.08 241.176 27.18 241.176 27.34C241.176 27.62 240.896 28.02 240.536 28.26C240.296 28.44 240.016 28.5 239.616 28.5C239.576 28.5 239.536 28.5 239.436 28.5ZM246.637 24.76C246.317 24.76 245.817 24.94 245.457 25.18C245.197 25.36 245.137 25.48 245.097 25.8C245.057 26.24 244.997 26.4 244.877 26.74L244.017 28.84C243.577 29.96 243.137 31.76 243.137 32.44C243.137 32.84 243.237 33.04 243.657 33.48C244.097 33.92 244.237 34.02 244.537 34.02C245.297 34.02 245.897 33.52 245.897 32.9C245.897 32.86 245.877 32.76 245.877 32.7C245.877 32.6 245.877 32.52 245.877 32.48C245.877 31.64 246.217 30.62 246.877 29.52C247.357 28.74 247.817 28.26 248.117 28.26C248.197 28.26 248.257 28.32 248.257 28.42C248.257 28.56 248.217 28.68 247.877 29.54C247.497 30.5 247.337 31.22 247.337 31.88C247.337 33.14 248.077 34 249.157 34C250.037 34 250.957 33.46 251.837 32.42C252.797 31.28 253.377 30.3 253.377 29.82C253.377 29.6 253.257 29.26 253.077 29.02C252.977 28.9 252.877 28.82 252.777 28.82C252.617 28.82 252.497 28.94 252.237 29.32C251.637 30.22 250.877 30.98 250.557 30.98C250.437 30.98 250.317 30.88 250.317 30.74C250.317 30.6 250.397 30.38 250.537 29.98C250.797 29.3 251.037 28.76 251.657 27.48C251.937 26.94 252.017 26.68 252.017 26.4C252.017 26.08 251.897 25.88 251.497 25.4C251.017 24.84 250.837 24.74 250.457 24.74C249.977 24.74 249.417 25.1 248.437 26.08C247.977 26.52 247.877 26.6 247.797 26.6C247.737 26.6 247.697 26.54 247.697 26.46C247.697 26.4 247.717 26.32 247.777 26.12C247.817 26.02 247.837 25.94 247.837 25.86C247.837 25.72 247.717 25.5 247.397 25.16C247.137 24.9 246.897 24.76 246.637 24.76ZM256.549 22.54C256.549 22.88 256.689 23.14 256.989 23.4L257.529 23.84C257.929 24.18 258.109 24.26 258.449 24.26C259.169 24.26 259.769 23.66 259.769 22.94C259.769 22.46 259.669 22.28 259.029 21.76L258.689 21.5C258.409 21.26 258.169 21.16 257.869 21.16C257.169 21.16 256.549 21.8 256.549 22.54ZM257.069 24.78C256.649 24.78 256.129 24.94 255.829 25.18C255.609 25.34 255.549 25.44 255.509 25.7C255.429 26.22 255.389 26.36 254.509 28.46C253.829 30.04 253.549 31.04 253.549 31.84C253.549 33.14 254.269 34 255.329 34C256.109 34 256.789 33.64 257.609 32.84C258.669 31.78 259.529 30.44 259.529 29.82C259.529 29.56 259.369 29.22 259.189 29.02C259.089 28.92 258.989 28.86 258.889 28.86C258.769 28.86 258.649 29 258.349 29.4C257.649 30.42 257.069 30.98 256.729 30.98C256.609 30.98 256.509 30.9 256.509 30.76C256.509 30.62 256.589 30.34 256.729 30C257.109 28.98 257.649 27.78 258.069 27.04C258.369 26.5 258.449 26.3 258.449 26.1C258.449 25.94 258.369 25.8 258.109 25.48C258.089 25.44 258.009 25.36 257.909 25.22C257.669 24.9 257.429 24.78 257.069 24.78ZM259.76 31.3C259.76 32.84 260.74 34.02 262.02 34.02C262.76 34.02 263.38 33.7 264.18 32.92C264.34 32.76 264.42 32.72 264.48 32.72C264.56 32.72 264.58 32.76 264.66 32.96C264.88 33.66 265.32 34 265.96 34C266.5 34 267.1 33.78 267.58 33.4C268.46 32.74 269.32 31.72 269.98 30.56C270.14 30.28 270.2 30.06 270.2 29.88C270.2 29.64 270.06 29.28 269.88 29.04C269.78 28.88 269.68 28.82 269.6 28.82C269.54 28.82 269.46 28.86 269.4 28.9C269.32 28.98 269.3 29 268.8 29.7C268.18 30.52 267.68 30.98 267.36 30.98C267.24 30.98 267.16 30.88 267.16 30.74C267.16 30.5 267.32 30 267.68 29.2L268.16 28.14C268.32 27.8 268.38 27.56 268.38 27.32C268.38 27 268.16 26.74 267.72 26.52L266.94 26.16C266.78 26.08 266.62 25.96 266.48 25.78L266.16 25.38C265.82 24.96 265.42 24.76 264.88 24.76C263.86 24.76 262.66 25.5 261.62 26.78C260.48 28.14 259.76 29.92 259.76 31.3ZM262.72 30.7C262.76 30.06 263.24 29.02 263.92 28.16C264.32 27.64 264.68 27.38 264.94 27.38C265.18 27.38 265.32 27.56 265.32 27.84C265.32 28.36 264.94 29.28 264.42 30C263.92 30.7 263.38 31.14 263.04 31.14C262.86 31.14 262.7 30.94 262.72 30.7ZM201.207 38.66C200.487 38.66 199.747 39.1 199.707 39.54L199.687 39.84C199.667 40 199.547 40.28 199.287 40.82C199.087 41.22 198.787 41.82 198.527 42.34C197.687 43.96 196.667 46.32 195.987 48.16C195.647 49.06 195.527 49.58 195.527 49.94C195.527 50.36 195.627 50.72 195.887 51.06C196.487 51.88 196.627 52 197.087 52C197.567 52 198.147 51.76 198.447 51.44C198.567 51.32 198.607 51.2 198.607 50.96C198.607 50.92 198.607 50.84 198.607 50.7C198.647 50.14 198.647 50.02 198.687 49.82C198.807 49.14 199.127 48.04 199.447 47.18C199.987 45.74 200.027 45.66 200.167 45.66C200.247 45.66 200.267 45.7 200.267 45.92C200.347 47.6 200.467 48.94 200.627 49.68C200.967 51.2 201.747 52 202.847 52C203.747 52 204.687 51.3 204.687 50.64C204.687 50.52 204.647 50.44 204.447 50.3C204.127 50.04 204.007 49.84 203.787 49.26C203.547 48.64 203.427 48.14 203.287 47.06C203.187 46.14 203.127 45.58 203.127 45.26C203.127 45 203.187 44.84 203.387 44.6C203.807 44.08 204.227 43.68 205.047 43.04C205.787 42.46 206.027 42.3 207.087 41.62C208.387 40.76 208.467 40.7 208.467 40.46C208.467 40.3 208.347 40.08 208.047 39.68C207.527 38.96 207.167 38.7 206.707 38.7C206.147 38.7 205.527 39.04 204.507 39.88C203.727 40.52 202.827 41.38 202.167 42.1L201.307 43.06C201.207 43.18 201.167 43.2 201.127 43.2C201.087 43.2 201.047 43.18 201.047 43.14C201.047 43.1 201.067 43.04 201.147 42.9C201.447 42.32 201.847 41.64 202.187 41.14C202.547 40.6 202.687 40.26 202.687 40C202.687 39.76 202.527 39.52 202.087 39.08C201.747 38.78 201.507 38.66 201.207 38.66ZM208.99 40.54C208.99 40.88 209.13 41.14 209.43 41.4L209.97 41.84C210.37 42.18 210.55 42.26 210.89 42.26C211.61 42.26 212.21 41.66 212.21 40.94C212.21 40.46 212.11 40.28 211.47 39.76L211.13 39.5C210.85 39.26 210.61 39.16 210.31 39.16C209.61 39.16 208.99 39.8 208.99 40.54ZM209.51 42.78C209.09 42.78 208.57 42.94 208.27 43.18C208.05 43.34 207.99 43.44 207.95 43.7C207.87 44.22 207.83 44.36 206.95 46.46C206.27 48.04 205.99 49.04 205.99 49.84C205.99 51.14 206.71 52 207.77 52C208.55 52 209.23 51.64 210.05 50.84C211.11 49.78 211.97 48.44 211.97 47.82C211.97 47.56 211.81 47.22 211.63 47.02C211.53 46.92 211.43 46.86 211.33 46.86C211.21 46.86 211.09 47 210.79 47.4C210.09 48.42 209.51 48.98 209.17 48.98C209.05 48.98 208.95 48.9 208.95 48.76C208.95 48.62 209.03 48.34 209.17 48C209.55 46.98 210.09 45.78 210.51 45.04C210.81 44.5 210.89 44.3 210.89 44.1C210.89 43.94 210.81 43.8 210.55 43.48C210.53 43.44 210.45 43.36 210.35 43.22C210.11 42.9 209.87 42.78 209.51 42.78ZM215.162 48.36C215.462 48.4 215.622 48.4 215.842 48.4C217.962 48.4 219.602 46.88 219.602 44.96C219.602 43.62 218.762 42.7 217.522 42.7C215.002 42.7 212.202 46.04 212.202 49.04C212.202 50.82 213.402 52.06 215.102 52.06C216.122 52.06 217.022 51.62 217.802 50.76C218.382 50.14 218.762 49.38 218.762 48.88C218.762 48.6 218.582 48.38 218.322 48.38C218.142 48.38 218.042 48.46 217.542 48.9C217.002 49.38 216.542 49.62 216.062 49.62C215.542 49.62 215.122 49.2 215.122 48.66C215.122 48.58 215.142 48.48 215.162 48.36ZM215.862 46.5C216.362 45.66 216.962 45.08 217.342 45.08C217.502 45.08 217.602 45.18 217.602 45.34C217.602 45.62 217.322 46.02 216.962 46.26C216.722 46.44 216.442 46.5 216.042 46.5C216.002 46.5 215.962 46.5 215.862 46.5ZM223.063 42.74C222.383 42.74 221.623 43.2 221.563 43.64L221.503 44.16C221.483 44.26 221.423 44.46 221.303 44.74C220.643 46.28 220.243 47.44 219.903 48.66C219.643 49.54 219.563 49.98 219.563 50.32C219.563 50.68 219.683 50.98 219.963 51.3C220.403 51.82 220.663 52 221.003 52C221.723 52 222.323 51.5 222.323 50.92C222.323 50.8 222.323 50.74 222.323 50.7C222.323 50.14 222.443 49.48 222.683 48.82C223.283 47.18 224.303 45.9 224.983 45.9C225.123 45.9 225.283 45.98 225.363 46.12L225.603 46.48C225.683 46.58 225.763 46.64 225.863 46.64C226.123 46.64 226.423 46.46 226.763 46.12C227.343 45.54 227.683 44.78 227.683 44.06C227.683 43.3 227.163 42.74 226.483 42.74C226.003 42.74 225.543 43.02 224.943 43.72L224.403 44.36C224.303 44.48 224.243 44.52 224.203 44.52C224.143 44.52 224.103 44.5 224.103 44.44C224.103 44.4 224.123 44.34 224.163 44.26C224.243 44.08 224.283 43.96 224.283 43.86C224.283 43.66 224.083 43.36 223.703 43.02C223.503 42.84 223.303 42.74 223.063 42.74ZM226.928 49.2C226.928 50.88 228.048 52.08 229.608 52.08C232.028 52.08 234.548 48.94 234.548 45.9C234.548 45.64 234.528 45.38 234.468 45.12L234.288 44.28C234.148 43.68 234.068 43.5 233.848 43.24C233.468 42.82 232.888 42.58 232.288 42.58C231.288 42.58 229.968 43.36 228.908 44.58C227.708 45.94 226.928 47.76 226.928 49.2ZM229.768 48.42C229.768 48 230.028 47.38 230.448 46.74C230.928 45.98 231.388 45.56 231.728 45.56C231.948 45.56 232.088 45.76 232.088 46.06C232.088 46.48 231.868 47.12 231.508 47.72C231.048 48.5 230.608 48.92 230.208 48.94C229.968 48.94 229.768 48.72 229.768 48.42ZM237.701 42.72C237.281 42.72 236.801 42.9 236.501 43.16C236.301 43.34 236.221 43.46 236.181 43.8C236.101 44.28 236.061 44.42 235.861 45C235.621 45.72 235.501 46.2 235.381 46.78C235.181 47.74 235.041 48.86 235.041 49.48C235.041 50.38 235.201 50.74 235.861 51.2C236.761 51.84 237.001 51.96 237.321 51.96C237.741 51.96 238.041 51.76 238.281 51.3L239.401 49.18C239.741 48.54 240.121 47.92 240.521 47.34C240.561 47.3 240.581 47.28 240.621 47.24C240.641 47.22 240.661 47.22 240.701 47.22C240.741 47.22 240.761 47.24 240.761 47.3C240.761 47.32 240.761 47.34 240.761 47.38C240.561 48.1 240.381 49.3 240.381 49.86C240.381 50.56 240.561 50.88 241.301 51.34C242.221 51.92 242.381 52.02 242.681 52.02C243.081 52.02 243.521 51.68 244.201 50.88C245.281 49.58 246.181 47.9 247.021 45.7L247.181 45.26L247.441 44.56C247.501 44.44 247.521 44.28 247.521 44.16C247.521 43.9 247.401 43.7 246.981 43.32C246.521 42.86 246.361 42.78 246.081 42.78C245.381 42.78 244.581 43.26 244.581 43.7C244.581 43.74 244.601 43.86 244.621 44C244.661 44.12 244.661 44.24 244.661 44.38C244.661 45.06 244.301 46.12 243.681 47.2C243.341 47.82 243.221 47.96 243.101 47.96C243.041 47.96 242.981 47.9 242.981 47.84C242.981 47.7 243.141 46.98 243.301 46.42L243.741 44.76C243.801 44.58 243.841 44.34 243.841 44.2C243.841 43.84 243.661 43.58 243.181 43.24C242.681 42.92 242.281 42.76 241.981 42.76C241.621 42.76 241.261 42.94 240.821 43.36C240.341 43.84 239.661 44.72 239.141 45.56C238.861 46.04 238.321 46.96 238.141 47.3C237.941 47.68 237.861 47.78 237.781 47.78C237.721 47.78 237.701 47.74 237.701 47.68C237.701 47.62 237.761 47.42 237.861 47.1L238.021 46.6C238.181 46.12 238.441 45.48 238.781 44.76C238.961 44.36 239.021 44.2 239.021 44.02C239.021 43.84 238.961 43.72 238.681 43.4L238.381 43.06C238.181 42.82 237.981 42.72 237.701 42.72ZM247.221 49.02C247.221 50.76 248.321 52.02 249.881 52.02C250.781 52.02 251.721 51.62 252.381 50.98C253.101 50.24 253.621 49.22 253.621 48.52C253.621 48.22 253.441 47.98 253.181 47.98C252.981 47.98 252.941 48 252.401 48.54C251.781 49.16 251.241 49.48 250.821 49.48C250.401 49.48 250.101 49.12 250.101 48.6C250.101 47.88 250.681 46.66 251.481 45.7C251.641 45.5 251.761 45.42 251.861 45.42C251.941 45.42 252.001 45.5 252.001 45.62C252.001 45.68 252.001 45.74 251.981 45.8L251.881 46.16C251.861 46.22 251.861 46.3 251.861 46.36C251.861 46.46 251.921 46.62 252.041 46.82C252.221 47.06 252.381 47.16 252.681 47.16C253.581 47.16 254.221 46.22 254.221 44.9C254.221 43.62 253.381 42.76 252.121 42.76C249.821 42.76 247.221 46.08 247.221 49.02ZM254.37 49.2C254.37 50.88 255.49 52.08 257.05 52.08C259.47 52.08 261.99 48.94 261.99 45.9C261.99 45.64 261.97 45.38 261.91 45.12L261.73 44.28C261.59 43.68 261.51 43.5 261.29 43.24C260.91 42.82 260.33 42.58 259.73 42.58C258.73 42.58 257.41 43.36 256.35 44.58C255.15 45.94 254.37 47.76 254.37 49.2ZM257.21 48.42C257.21 48 257.47 47.38 257.89 46.74C258.37 45.98 258.83 45.56 259.17 45.56C259.39 45.56 259.53 45.76 259.53 46.06C259.53 46.48 259.31 47.12 258.95 47.72C258.49 48.5 258.05 48.92 257.65 48.94C257.41 48.94 257.21 48.72 257.21 48.42ZM263.53 40.1C263.53 39.96 263.47 39.76 263.35 39.48C263.25 39.3 263.19 39.14 263.13 39L262.99 38.66C262.85 38.34 262.63 38.18 262.37 38.18C262.01 38.18 261.49 38.5 260.73 39.2C259.95 39.92 259.59 40.42 259.59 40.84C259.59 41.06 259.77 41.34 260.03 41.58C260.21 41.74 260.35 41.8 260.49 41.8C260.59 41.8 260.69 41.76 260.81 41.66L261.23 41.32C261.57 41.04 262.01 40.82 262.39 40.72L263.11 40.54C263.37 40.48 263.53 40.3 263.53 40.1ZM265.142 42.72C264.722 42.72 264.242 42.9 263.942 43.16C263.742 43.34 263.662 43.46 263.622 43.8C263.542 44.28 263.502 44.42 263.302 45C263.062 45.72 262.942 46.2 262.822 46.78C262.622 47.74 262.482 48.86 262.482 49.48C262.482 50.38 262.642 50.74 263.302 51.2C264.202 51.84 264.442 51.96 264.762 51.96C265.182 51.96 265.482 51.76 265.722 51.3L266.842 49.18C267.182 48.54 267.562 47.92 267.962 47.34C268.002 47.3 268.022 47.28 268.062 47.24C268.082 47.22 268.102 47.22 268.142 47.22C268.182 47.22 268.202 47.24 268.202 47.3C268.202 47.32 268.202 47.34 268.202 47.38C268.002 48.1 267.822 49.3 267.822 49.86C267.822 50.56 268.002 50.88 268.742 51.34C269.662 51.92 269.822 52.02 270.122 52.02C270.522 52.02 270.962 51.68 271.642 50.88C272.722 49.58 273.622 47.9 274.462 45.7L274.622 45.26L274.882 44.56C274.942 44.44 274.962 44.28 274.962 44.16C274.962 43.9 274.842 43.7 274.422 43.32C273.962 42.86 273.802 42.78 273.522 42.78C272.822 42.78 272.022 43.26 272.022 43.7C272.022 43.74 272.042 43.86 272.062 44C272.102 44.12 272.102 44.24 272.102 44.38C272.102 45.06 271.742 46.12 271.122 47.2C270.782 47.82 270.662 47.96 270.542 47.96C270.482 47.96 270.422 47.9 270.422 47.84C270.422 47.7 270.582 46.98 270.742 46.42L271.182 44.76C271.242 44.58 271.282 44.34 271.282 44.2C271.282 43.84 271.102 43.58 270.622 43.24C270.122 42.92 269.722 42.76 269.422 42.76C269.062 42.76 268.702 42.94 268.262 43.36C267.782 43.84 267.102 44.72 266.582 45.56C266.302 46.04 265.762 46.96 265.582 47.3C265.382 47.68 265.302 47.78 265.222 47.78C265.162 47.78 265.142 47.74 265.142 47.68C265.142 47.62 265.202 47.42 265.302 47.1L265.462 46.6C265.622 46.12 265.882 45.48 266.222 44.76C266.402 44.36 266.462 44.2 266.462 44.02C266.462 43.84 266.402 43.72 266.122 43.4L265.822 43.06C265.622 42.82 265.422 42.72 265.142 42.72Z" fill="#1E1E1E"/>
</svg>
